<?xml version="1.0" standalone="no"?>
<!DOCTYPE svg PUBLIC "-//W3C//DTD SVG 20010904//EN"
 "http://www.w3.org/TR/2001/REC-SVG-20010904/DTD/svg10.dtd">
<svg version="1.0" xmlns="http://www.w3.org/2000/svg"
 width="64.000000pt" height="64.000000pt" viewBox="0 0 64.000000 64.000000"
 preserveAspectRatio="xMidYMid meet">

<g transform="translate(0.000000,64.000000) scale(0.100000,-0.100000)"
fill="#000000" stroke="none">
<path d="M502 610 c-7 -11 -20 -20 -30 -20 -29 0 -43 -19 -29 -41 9 -15 9 -23
0 -38 -14 -22 0 -41 29 -41 10 0 23 -9 30 -20 16 -25 40 -26 55 -1 7 11 23 21
35 23 21 3 23 8 23 58 0 50 -2 55 -23 58 -12 2 -28 12 -35 23 -15 25 -39 24
-55 -1z m58 -55 c26 -32 -13 -81 -47 -59 -23 14 -28 41 -13 59 16 19 44 19 60
0z"/>
<path d="M276 353 c-6 -14 -5 -15 5 -6 7 7 10 15 7 18 -3 3 -9 -2 -12 -12z"/>
<path d="M315 309 c-4 -6 -5 -12 -2 -15 2 -3 7 2 10 11 7 17 1 20 -8 4z"/>
</g>
</svg>
