<?xml version="1.0" standalone="no"?>
<!DOCTYPE svg PUBLIC "-//W3C//DTD SVG 20010904//EN"
 "http://www.w3.org/TR/2001/REC-SVG-20010904/DTD/svg10.dtd">
<svg version="1.0" xmlns="http://www.w3.org/2000/svg"
 width="64.000000pt" height="64.000000pt" viewBox="0 0 64.000000 64.000000"
 preserveAspectRatio="xMidYMid meet">

<g transform="translate(0.000000,64.000000) scale(0.100000,-0.100000)"
fill="#000000" stroke="none">
<path d="M366 585 c-9 -24 4 -45 29 -45 29 0 38 13 30 40 -8 24 -50 27 -59 5z
m50 -6 c9 -15 -11 -33 -30 -26 -9 4 -13 13 -10 22 7 17 30 20 40 4z"/>
<path d="M495 550 c-3 -5 -17 -10 -31 -10 -17 0 -27 -8 -34 -25 l-10 -25 -169
0 c-214 0 -201 12 -201 -190 0 -80 4 -152 9 -160 7 -10 4 -18 -10 -28 -22 -15
-25 -42 -7 -60 9 -9 85 -12 280 -12 257 0 268 1 278 20 11 20 -1 60 -18 60
-11 0 -2 263 9 277 6 7 8 17 4 22 -3 6 -1 20 6 33 9 17 9 24 -4 32 -8 7 -16
20 -18 31 -3 12 -14 21 -29 23 -14 2 -30 8 -37 13 -7 7 -14 6 -18 -1z m30 -20
c3 -5 14 -10 23 -10 43 0 48 -98 8 -132 -42 -35 -126 -8 -126 39 0 10 -5 24
-10 29 -8 8 -6 15 5 24 8 7 15 19 15 26 0 8 9 14 19 14 11 0 23 5 26 10 3 6
12 10 20 10 8 0 17 -4 20 -10z m-121 -66 c3 -9 6 -18 6 -20 0 -2 -70 -4 -155
-4 l-155 0 0 -140 0 -140 220 0 220 0 0 99 c0 75 4 101 15 111 13 11 15 -2 15
-108 0 -110 -2 -122 -19 -132 -29 -15 -453 -14 -469 2 -13 13 -18 329 -5 341
3 4 77 7 164 7 134 0 158 -2 163 -16z m-149 -43 c-63 -8 -91 -24 -110 -61 -38
-74 -7 -143 80 -177 27 -10 24 -12 -42 -12 l-73 -1 0 130 0 130 98 -1 c78 -2
87 -3 47 -8z m101 -67 c20 -42 33 -78 31 -81 -5 -4 -23 32 -63 125 -8 17 -12
32 -8 32 3 0 21 -34 40 -76z m54 65 c0 -22 58 -65 86 -64 l29 0 3 -92 3 -93
-121 0 c-66 0 -120 2 -120 4 0 10 84 86 96 86 21 0 17 21 -16 95 -16 37 -30
69 -30 71 0 2 16 4 35 4 19 0 35 -5 35 -11z m-130 -18 c0 -11 -58 -61 -71 -61
-17 0 -49 -40 -49 -60 0 -12 10 -25 23 -30 57 -24 81 -67 26 -48 -85 30 -88
164 -4 199 27 11 75 11 75 0z m54 -58 c15 -31 25 -57 24 -58 -2 -1 -20 -5 -41
-8 -33 -5 -39 -3 -52 23 -8 16 -15 33 -15 38 0 13 40 62 50 62 5 0 20 -25 34
-57z m-83 -40 c8 -22 7 -30 -7 -40 -25 -19 -30 -17 -44 18 -11 26 -11 32 1 40
24 15 39 10 50 -18z m-61 -34 c0 -5 -4 -9 -10 -9 -5 0 -10 7 -10 16 0 8 5 12
10 9 6 -3 10 -10 10 -16z m160 -9 c0 -13 -49 -60 -62 -60 -4 0 -6 11 -2 25 4
17 2 25 -7 26 -8 1 4 5 26 9 22 4 41 8 43 9 1 0 2 -4 2 -9z m-71 -85 c0 -5 -6
-1 -14 9 -8 11 -15 27 -15 35 1 17 29 -26 29 -44z m-179 -75 c0 -5 18 -10 40
-10 22 0 40 5 40 10 0 6 16 10 35 10 19 0 35 -4 35 -10 0 -6 30 -10 70 -10 40
0 70 4 70 10 0 6 14 10 30 10 17 0 30 -4 30 -10 0 -5 18 -10 40 -10 22 0 40 5
40 11 0 6 12 9 28 7 21 -2 27 -8 27 -28 l0 -25 -261 -3 c-224 -2 -263 0 -274
13 -10 12 -10 18 0 30 14 17 50 20 50 5z m63 3 c-7 -2 -21 -2 -30 0 -10 3 -4
5 12 5 17 0 24 -2 18 -5z m185 0 c-15 -2 -42 -2 -60 0 -18 2 -6 4 27 4 33 0
48 -2 33 -4z m165 0 c-7 -2 -21 -2 -30 0 -10 3 -4 5 12 5 17 0 24 -2 18 -5z"/>
<path d="M467 493 c-12 -11 -8 -23 8 -23 8 0 15 7 15 15 0 16 -12 20 -23 8z"/>
<path d="M497 465 c-33 -69 -12 -93 23 -25 23 46 25 60 7 60 -7 0 -21 -16 -30
-35z m18 -14 c-21 -43 -29 -39 -8 4 9 19 18 33 21 31 2 -2 -4 -18 -13 -35z"/>
<path d="M530 425 c0 -9 5 -15 11 -13 6 2 11 8 11 13 0 5 -5 11 -11 13 -6 2
-11 -4 -11 -13z"/>
<path d="M458 293 c12 -2 30 -2 40 0 9 3 -1 5 -23 4 -22 0 -30 -2 -17 -4z"/>
<path d="M450 270 c0 -5 14 -10 30 -10 17 0 30 5 30 10 0 6 -13 10 -30 10 -16
0 -30 -4 -30 -10z"/>
<path d="M458 243 c12 -2 30 -2 40 0 9 3 -1 5 -23 4 -22 0 -30 -2 -17 -4z"/>
<path d="M458 223 c12 -2 30 -2 40 0 9 3 -1 5 -23 4 -22 0 -30 -2 -17 -4z"/>
<path d="M458 193 c12 -2 30 -2 40 0 9 3 -1 5 -23 4 -22 0 -30 -2 -17 -4z"/>
<path d="M300 368 c0 -10 -4 -18 -9 -18 -11 0 -2 -38 11 -46 5 -3 6 6 3 23 -6
27 -5 27 15 -7 16 -27 19 -29 14 -10 -4 14 -13 36 -20 50 -10 19 -13 21 -14 8z"/>
<path d="M205 310 c-3 -5 -1 -10 4 -10 6 0 10 -5 9 -11 -2 -6 4 -14 12 -16 12
-4 12 -3 1 5 -11 8 -11 10 0 15 11 4 11 6 1 6 -7 1 -10 6 -7 11 3 6 2 10 -4
10 -5 0 -13 -4 -16 -10z"/>
<path d="M95 540 c-4 -7 -3 -16 3 -22 14 -14 45 -2 40 15 -6 16 -34 21 -43 7z
m35 -10 c0 -5 -7 -10 -16 -10 -8 0 -12 5 -9 10 3 6 10 10 16 10 5 0 9 -4 9
-10z"/>
<path d="M40 520 c0 -5 5 -10 10 -10 6 0 10 5 10 10 0 6 -4 10 -10 10 -5 0
-10 -4 -10 -10z"/>
</g>
</svg>
