<?xml version="1.0" standalone="no"?>
<!DOCTYPE svg PUBLIC "-//W3C//DTD SVG 20010904//EN"
 "http://www.w3.org/TR/2001/REC-SVG-20010904/DTD/svg10.dtd">
<svg version="1.0" xmlns="http://www.w3.org/2000/svg"
 width="64.000000pt" height="64.000000pt" viewBox="0 0 64.000000 64.000000"
 preserveAspectRatio="xMidYMid meet">

<g transform="translate(0.000000,64.000000) scale(0.100000,-0.100000)"
fill="#000000" stroke="none">
<path d="M117 614 c-4 -4 -7 -63 -7 -130 l0 -123 -42 -3 -43 -3 0 -75 0 -75
42 -3 42 -3 3 -87 3 -87 218 -3 c187 -2 218 0 223 13 4 8 15 15 25 15 10 0 26
11 35 25 13 20 14 28 4 40 -10 12 -10 18 0 30 10 12 9 20 -4 40 -9 14 -23 25
-31 25 -8 0 -24 9 -35 20 -17 17 -20 33 -20 105 0 82 1 85 19 73 16 -10 25 -9
45 2 32 17 32 23 0 40 -20 11 -29 12 -45 2 -15 -10 -19 -10 -19 0 0 15 45 38
72 38 10 0 18 5 18 10 0 6 -8 10 -18 10 -10 0 -30 6 -45 13 -21 9 -27 20 -29
52 l-3 40 -201 3 c-110 1 -203 -1 -207 -4z m393 -24 c0 -6 -70 -10 -190 -10
-120 0 -190 4 -190 10 0 6 70 10 190 10 120 0 190 -4 190 -10z m0 -55 c0 -28
-15 -34 -24 -10 -5 13 -20 15 -78 13 l-73 -3 0 -75 0 -75 73 -3 c67 -3 74 -1
79 18 12 46 23 14 23 -68 0 -102 -13 -124 -74 -124 -20 0 -36 -4 -36 -9 0 -5
7 -9 16 -9 8 0 12 -4 9 -10 -3 -5 -15 -10 -26 -10 -10 0 -19 -4 -19 -10 0 -5
11 -10 25 -10 16 0 25 -6 25 -15 0 -13 -23 -15 -150 -15 l-150 0 0 39 c0 33 4
40 23 43 17 2 23 11 25 36 3 32 26 45 35 20 3 -10 10 -8 23 5 18 16 18 18 0
35 -13 12 -20 14 -23 5 -9 -26 -32 -13 -35 20 -2 24 -8 33 -25 35 -22 3 -23 7
-23 103 l0 99 190 0 190 0 0 -25z m-40 -75 l0 -60 -60 0 -60 0 0 60 0 60 60 0
60 0 0 -60z m80 40 c0 -5 -4 -10 -10 -10 -5 0 -10 5 -10 10 0 6 5 10 10 10 6
0 10 -4 10 -10z m-40 -35 c0 -14 -4 -25 -10 -25 -5 0 -10 11 -10 25 0 14 5 25
10 25 6 0 10 -11 10 -25z m70 -35 c0 -5 -4 -10 -10 -10 -5 0 -10 5 -10 10 0 6
5 10 10 10 6 0 10 -4 10 -10z m-420 -150 l0 -60 -60 0 -60 0 0 60 0 60 60 0
60 0 0 -60z m384 -75 c3 -8 14 -15 24 -15 28 0 43 -20 31 -42 -6 -12 -6 -24 0
-36 12 -22 -3 -42 -31 -42 -10 0 -21 -7 -24 -15 -8 -19 -33 -19 -40 0 -4 8
-16 15 -29 15 -27 0 -40 26 -24 46 9 11 9 17 0 28 -16 20 -3 46 24 46 13 0 25
7 29 15 3 8 12 15 20 15 7 0 16 -7 20 -15z m-116 -129 c6 -14 21 -26 34 -29
13 -2 -57 -5 -154 -6 l-178 -1 0 30 0 30 143 0 c142 0 144 0 155 -24z"/>
<path d="M154 527 c-3 -8 -4 -43 -2 -78 l3 -64 75 0 75 0 0 75 0 75 -73 3
c-55 2 -74 -1 -78 -11z m136 -67 l0 -60 -60 0 -60 0 0 60 0 60 60 0 60 0 0
-60z"/>
<path d="M200 460 c0 -22 3 -40 6 -40 10 0 64 34 64 40 0 6 -54 40 -64 40 -3
0 -6 -18 -6 -40z"/>
<path d="M333 310 c-14 -21 -2 -70 17 -70 6 0 6 9 0 24 -6 17 -4 30 6 45 12
16 12 21 2 21 -7 0 -19 -9 -25 -20z"/>
<path d="M407 318 c-20 -16 -41 -68 -26 -68 5 0 17 17 26 37 14 35 16 36 28
19 10 -13 11 -25 5 -42 -6 -15 -6 -24 0 -24 19 0 31 49 17 70 -14 23 -27 25
-50 8z"/>
<path d="M240 314 c0 -4 8 -13 18 -20 16 -13 16 -15 -2 -29 -23 -18 -13 -34
12 -19 22 14 27 41 12 59 -12 15 -40 21 -40 9z"/>
<path d="M300 200 c0 -5 5 -10 10 -10 6 0 10 5 10 10 0 6 -4 10 -10 10 -5 0
-10 -4 -10 -10z"/>
<path d="M340 200 c0 -5 9 -10 20 -10 11 0 20 5 20 10 0 6 -9 10 -20 10 -11 0
-20 -4 -20 -10z"/>
<path d="M300 160 c0 -5 14 -10 30 -10 17 0 30 5 30 10 0 6 -13 10 -30 10 -16
0 -30 -4 -30 -10z"/>
<path d="M380 485 c-26 -32 13 -81 48 -59 22 14 27 41 12 59 -16 19 -44 19
-60 0z m46 -16 c10 -17 -13 -36 -27 -22 -12 12 -4 33 11 33 5 0 12 -5 16 -11z"/>
<path d="M60 280 l0 -40 40 0 40 0 0 40 0 40 -40 0 -40 0 0 -40z m60 0 c0 -13
-7 -20 -20 -20 -13 0 -20 7 -20 20 0 13 7 20 20 20 13 0 20 -7 20 -20z"/>
<path d="M490 150 c-13 -23 2 -60 25 -60 30 0 45 13 45 40 0 42 -51 56 -70 20z
m47 -32 c-3 -7 -5 -2 -5 12 0 14 2 19 5 13 2 -7 2 -19 0 -25z"/>
<path d="M280 70 c0 -5 20 -10 45 -10 25 0 45 5 45 10 0 6 -20 10 -45 10 -25
0 -45 -4 -45 -10z"/>
</g>
</svg>
