<?xml version="1.0" standalone="no"?>
<!DOCTYPE svg PUBLIC "-//W3C//DTD SVG 20010904//EN"
 "http://www.w3.org/TR/2001/REC-SVG-20010904/DTD/svg10.dtd">
<svg version="1.0" xmlns="http://www.w3.org/2000/svg"
 width="64.000000pt" height="64.000000pt" viewBox="0 0 64.000000 64.000000"
 preserveAspectRatio="xMidYMid meet">

<g transform="translate(0.000000,64.000000) scale(0.100000,-0.100000)"
fill="#000000" stroke="none">
<path d="M496 615 c-3 -8 -14 -15 -25 -15 -26 0 -34 -15 -36 -64 -2 -51 10
-76 36 -76 11 0 22 -7 25 -15 4 -8 18 -15 34 -15 16 0 30 7 34 15 3 8 14 15
25 15 26 0 38 25 36 76 -2 49 -10 64 -36 64 -11 0 -22 7 -25 15 -4 8 -18 15
-34 15 -16 0 -30 -7 -34 -15z m54 -19 c6 -8 21 -16 32 -18 18 -3 21 -10 21
-48 0 -36 -4 -46 -19 -49 -10 -1 -27 -10 -36 -19 -16 -14 -20 -14 -35 0 -10 9
-27 18 -37 19 -15 3 -19 13 -19 49 0 38 3 45 21 48 11 2 26 10 32 18 7 8 16
14 20 14 4 0 13 -6 20 -14z"/>
<path d="M494 556 c-3 -8 -4 -25 -2 -38 2 -19 9 -23 38 -23 33 0 35 2 35 35 0
32 -3 35 -33 38 -21 2 -34 -2 -38 -12z m56 -26 c0 -13 -7 -20 -20 -20 -13 0
-20 7 -20 20 0 13 7 20 20 20 13 0 20 -7 20 -20z"/>
<path d="M280 600 c0 -5 5 -10 10 -10 6 0 10 5 10 10 0 6 -4 10 -10 10 -5 0
-10 -4 -10 -10z"/>
<path d="M320 600 c0 -5 5 -10 10 -10 6 0 10 5 10 10 0 6 -4 10 -10 10 -5 0
-10 -4 -10 -10z"/>
<path d="M245 590 c3 -5 8 -10 11 -10 2 0 4 5 4 10 0 6 -5 10 -11 10 -5 0 -7
-4 -4 -10z"/>
<path d="M365 590 c3 -5 8 -10 11 -10 2 0 4 5 4 10 0 6 -5 10 -11 10 -5 0 -7
-4 -4 -10z"/>
<path d="M210 580 c0 -5 5 -10 10 -10 6 0 10 5 10 10 0 6 -4 10 -10 10 -5 0
-10 -4 -10 -10z"/>
<path d="M170 560 c0 -5 5 -10 10 -10 6 0 10 5 10 10 0 6 -4 10 -10 10 -5 0
-10 -4 -10 -10z"/>
<path d="M140 540 c0 -5 5 -10 10 -10 6 0 10 5 10 10 0 6 -4 10 -10 10 -5 0
-10 -4 -10 -10z"/>
<path d="M110 509 c0 -5 5 -7 10 -4 6 3 10 8 10 11 0 2 -4 4 -10 4 -5 0 -10
-5 -10 -11z"/>
<path d="M85 480 c3 -5 8 -10 11 -10 2 0 4 5 4 10 0 6 -5 10 -11 10 -5 0 -7
-4 -4 -10z"/>
<path d="M60 450 c0 -5 5 -10 10 -10 6 0 10 5 10 10 0 6 -4 10 -10 10 -5 0
-10 -4 -10 -10z"/>
<path d="M390 420 c0 -5 -15 -10 -34 -10 -25 0 -39 -7 -50 -22 l-16 -22 -16
22 c-12 18 -25 22 -65 22 -48 0 -49 -1 -49 -30 0 -27 3 -30 34 -30 18 0 39 -7
46 -15 19 -22 -5 -45 -46 -45 -31 0 -34 -3 -34 -30 0 -29 1 -30 49 -30 40 0
53 4 65 22 l16 22 16 -22 c12 -18 25 -22 69 -22 32 0 55 -5 57 -12 4 -11 68
28 68 42 0 14 -64 53 -68 42 -5 -17 -77 -15 -92 3 -10 12 -10 18 0 30 14 17
50 20 50 5 0 -16 12 -11 45 15 l30 25 -30 25 c-33 26 -45 31 -45 15z m37 -43
c-2 -7 -20 -10 -43 -9 -38 3 -42 0 -89 -57 -42 -53 -53 -61 -82 -61 -18 0 -33
5 -33 10 0 6 13 10 28 10 23 0 38 12 77 59 42 54 52 60 89 63 48 4 59 1 53
-15z m-169 1 c7 -7 12 -19 12 -27 0 -12 -3 -11 -18 2 -10 10 -31 17 -45 17
-15 0 -27 5 -27 10 0 14 64 12 78 -2z m149 -107 c44 2 58 0 58 -11 0 -10 -15
-13 -65 -11 -67 3 -90 13 -90 39 0 13 3 13 19 -2 15 -13 34 -17 78 -15z"/>
<path d="M50 409 c0 -5 5 -7 10 -4 6 3 10 8 10 11 0 2 -4 4 -10 4 -5 0 -10 -5
-10 -11z"/>
<path d="M585 390 c-3 -5 -1 -10 4 -10 6 0 11 5 11 10 0 6 -2 10 -4 10 -3 0
-8 -4 -11 -10z"/>
<path d="M40 369 c0 -5 5 -7 10 -4 6 3 10 8 10 11 0 2 -4 4 -10 4 -5 0 -10 -5
-10 -11z"/>
<path d="M590 350 c0 -5 5 -10 10 -10 6 0 10 5 10 10 0 6 -4 10 -10 10 -5 0
-10 -4 -10 -10z"/>
<path d="M30 330 c0 -5 5 -10 10 -10 6 0 10 5 10 10 0 6 -4 10 -10 10 -5 0
-10 -4 -10 -10z"/>
<path d="M590 310 c0 -5 5 -10 10 -10 6 0 10 5 10 10 0 6 -4 10 -10 10 -5 0
-10 -4 -10 -10z"/>
<path d="M30 290 c0 -5 5 -10 10 -10 6 0 10 5 10 10 0 6 -4 10 -10 10 -5 0
-10 -4 -10 -10z"/>
<path d="M585 270 c-3 -5 -1 -10 4 -10 6 0 11 5 11 10 0 6 -2 10 -4 10 -3 0
-8 -4 -11 -10z"/>
<path d="M40 249 c0 -5 5 -7 10 -4 6 3 10 8 10 11 0 2 -4 4 -10 4 -5 0 -10 -5
-10 -11z"/>
<path d="M575 230 c-3 -5 -1 -10 4 -10 6 0 11 5 11 10 0 6 -2 10 -4 10 -3 0
-8 -4 -11 -10z"/>
<path d="M61 196 c-87 -48 -50 -186 49 -186 51 0 100 49 100 99 0 75 -83 124
-149 87z m104 -31 c33 -32 33 -78 0 -110 -32 -33 -78 -33 -110 0 -50 49 -15
135 55 135 19 0 40 -9 55 -25z"/>
<path d="M64 146 c-26 -20 -13 -30 20 -15 20 10 32 10 52 0 33 -15 46 -5 20
15 -25 18 -67 18 -92 0z"/>
<path d="M85 111 c-7 -12 -5 -13 25 -14 11 -1 21 3 23 8 3 14 -40 19 -48 6z"/>
<path d="M100 70 c0 -5 5 -10 10 -10 6 0 10 5 10 10 0 6 -4 10 -10 10 -5 0
-10 -4 -10 -10z"/>
<path d="M560 190 c0 -5 5 -10 10 -10 6 0 10 5 10 10 0 6 -4 10 -10 10 -5 0
-10 -4 -10 -10z"/>
<path d="M540 160 c0 -5 5 -10 11 -10 5 0 7 5 4 10 -3 6 -8 10 -11 10 -2 0 -4
-4 -4 -10z"/>
<path d="M515 130 c-3 -5 -1 -10 4 -10 6 0 11 5 11 10 0 6 -2 10 -4 10 -3 0
-8 -4 -11 -10z"/>
<path d="M480 100 c0 -5 5 -10 10 -10 6 0 10 5 10 10 0 6 -4 10 -10 10 -5 0
-10 -4 -10 -10z"/>
<path d="M450 80 c0 -5 5 -10 10 -10 6 0 10 5 10 10 0 6 -4 10 -10 10 -5 0
-10 -4 -10 -10z"/>
<path d="M410 60 c0 -5 5 -10 10 -10 6 0 10 5 10 10 0 6 -4 10 -10 10 -5 0
-10 -4 -10 -10z"/>
<path d="M260 50 c0 -5 5 -10 11 -10 5 0 7 5 4 10 -3 6 -8 10 -11 10 -2 0 -4
-4 -4 -10z"/>
<path d="M380 50 c0 -5 5 -10 11 -10 5 0 7 5 4 10 -3 6 -8 10 -11 10 -2 0 -4
-4 -4 -10z"/>
<path d="M300 40 c0 -5 5 -10 10 -10 6 0 10 5 10 10 0 6 -4 10 -10 10 -5 0
-10 -4 -10 -10z"/>
</g>
</svg>
