<?xml version="1.0" standalone="no"?>
<!DOCTYPE svg PUBLIC "-//W3C//DTD SVG 20010904//EN"
 "http://www.w3.org/TR/2001/REC-SVG-20010904/DTD/svg10.dtd">
<svg version="1.0" xmlns="http://www.w3.org/2000/svg"
 width="64.000000pt" height="64.000000pt" viewBox="0 0 64.000000 64.000000"
 preserveAspectRatio="xMidYMid meet">

<g transform="translate(0.000000,64.000000) scale(0.100000,-0.100000)"
fill="#000000" stroke="none">
<path d="M83 622 c-24 -15 -33 -66 -33 -185 0 -116 9 -161 27 -143 4 4 10 74
13 154 l5 147 225 0 225 0 5 -147 c3 -80 9 -150 13 -154 18 -18 27 27 27 143
0 119 -9 170 -33 185 -16 10 -458 10 -474 0z"/>
<path d="M7 238 c-9 -27 15 -67 45 -77 41 -15 495 -15 536 0 30 10 54 50 45
77 -7 18 -619 18 -626 0z m593 -28 c0 -25 -49 -30 -280 -30 -231 0 -280 5
-280 30 0 6 107 10 280 10 173 0 280 -4 280 -10z"/>
<path d="M306 94 c-3 -9 -6 -27 -6 -40 0 -24 -1 -24 -96 -24 -72 0 -95 -3 -92
-12 7 -19 459 -19 466 0 3 9 -25 12 -117 12 l-121 0 0 24 c0 48 -21 73 -34 40z"/>
<path d="M13 18 c2 -7 10 -13 17 -13 7 0 15 6 18 13 2 7 -5 12 -18 12 -13 0
-20 -5 -17 -12z"/>
</g>
</svg>
