<?xml version="1.0" standalone="no"?>
<!DOCTYPE svg PUBLIC "-//W3C//DTD SVG 20010904//EN"
 "http://www.w3.org/TR/2001/REC-SVG-20010904/DTD/svg10.dtd">
<svg version="1.0" xmlns="http://www.w3.org/2000/svg"
 width="64.000000pt" height="64.000000pt" viewBox="0 0 64.000000 64.000000"
 preserveAspectRatio="xMidYMid meet">

<g transform="translate(0.000000,64.000000) scale(0.100000,-0.100000)"
fill="#000000" stroke="none">
<path d="M42 588 c-17 -17 -17 -449 0 -466 7 -7 37 -12 68 -12 44 0 61 -5 75
-20 14 -15 22 -17 37 -9 25 13 55 3 61 -21 7 -29 77 -29 77 -1 0 24 32 36 58
22 15 -8 23 -6 37 9 14 15 31 20 75 20 31 0 61 5 68 12 17 17 17 449 0 466
-17 17 -539 17 -556 0z m546 -10 c7 -7 12 -31 12 -55 l0 -43 -280 0 -280 0 0
43 c0 24 5 48 12 55 17 17 519 17 536 0z m9 -268 c2 -85 -1 -161 -6 -169 -14
-21 -104 -27 -120 -8 -16 21 -6 53 19 60 29 7 29 77 1 77 -24 0 -36 33 -22 57
15 27 -24 66 -51 52 -26 -14 -58 -2 -58 22 0 28 -70 28 -77 -1 -7 -25 -39 -35
-59 -19 -22 18 -67 -26 -53 -53 14 -26 2 -58 -22 -58 -28 0 -28 -70 1 -77 25
-7 35 -39 19 -60 -16 -19 -106 -13 -120 8 -10 16 -12 312 -2 322 4 4 128 6
277 5 l271 -3 2 -155z m-254 80 c7 -26 54 -45 73 -29 21 17 47 -7 34 -31 -14
-26 7 -80 31 -80 12 0 19 -7 19 -20 0 -13 -7 -20 -19 -20 -25 0 -47 -56 -30
-76 17 -21 -7 -47 -31 -34 -26 14 -80 -7 -80 -31 0 -12 -7 -19 -20 -19 -13 0
-20 7 -20 19 0 25 -51 47 -78 32 -27 -14 -51 11 -32 34 17 21 -5 75 -31 75
-12 0 -19 7 -19 20 0 13 7 20 19 20 24 0 45 54 31 80 -13 24 13 48 34 31 20
-17 76 5 76 30 0 26 36 25 43 -1z"/>
<path d="M70 556 c-27 -33 18 -72 48 -42 13 13 14 20 6 34 -15 23 -38 26 -54
8z m38 -23 c-4 -22 -22 -20 -26 1 -2 10 3 16 13 16 10 0 15 -7 13 -17z"/>
<path d="M154 556 c-11 -29 1 -51 26 -51 19 0 26 6 28 24 5 35 -42 58 -54 27z
m44 -23 c2 -8 -5 -13 -17 -13 -12 0 -21 6 -21 16 0 18 31 15 38 -3z"/>
<path d="M240 556 c-27 -33 18 -72 48 -42 13 13 14 20 6 34 -15 23 -38 26 -54
8z m38 -23 c-4 -22 -22 -20 -26 1 -2 10 3 16 13 16 10 0 15 -7 13 -17z"/>
<path d="M270 333 c-21 -11 -42 -33 -54 -57 -17 -36 -18 -43 -5 -79 18 -52 56
-80 109 -80 53 0 91 28 109 79 12 34 11 44 -2 76 -27 65 -96 92 -157 61z m121
-32 c72 -73 3 -192 -97 -167 -75 19 -100 112 -45 167 41 41 101 41 142 0z"/>
<path d="M316 259 c-7 -36 -8 -94 -1 -88 8 9 22 119 15 119 -4 0 -10 -14 -14
-31z"/>
<path d="M259 250 l-24 -20 24 -20 c13 -11 28 -20 35 -20 6 1 0 10 -14 21
l-24 21 24 19 c14 10 20 19 14 19 -7 0 -22 -9 -35 -20z"/>
<path d="M360 251 l24 -19 -24 -21 c-14 -11 -20 -20 -14 -21 7 0 22 9 35 20
l24 20 -24 20 c-13 11 -28 20 -35 20 -6 0 0 -9 14 -19z"/>
</g>
</svg>
